HIERARCHY
ROOT joint_Root
{
	OFFSET 0.0 0.0 0.0
	CHANNELS 6 Xposition Yposition Zposition Zrotation Xrotation Yrotation 
	JOINT Hips
	{
		OFFSET -17.1583 93.1646 452.98
		CHANNELS 6 Xposition Yposition Zposition Zrotation Xrotation Yrotation 
		JOINT Spine
		{
			OFFSET 15.7357 0.0 0.0
			CHANNELS 6 Xposition Yposition Zposition Zrotation Xrotation Yrotation 
			JOINT Chest
			{
				OFFSET 8.98455 -0.406207 0.0
				CHANNELS 6 Xposition Yposition Zposition Zrotation Xrotation Yrotation 
				JOINT Neck
				{
					OFFSET 16.3773 0.0 0.0
					CHANNELS 6 Xposition Yposition Zposition Zrotation Xrotation Yrotation 
					JOINT Head
					{
						OFFSET 6.45672 0.0 0.0
						CHANNELS 6 Xposition Yposition Zposition Zrotation Xrotation Yrotation 
						End Site
						{
							OFFSET 0.0 0.0 0.0
						}
					}
				}
				JOINT Shoulder_L
				{
					OFFSET 12.9942 -0.242716 4.98039
					CHANNELS 6 Xposition Yposition Zposition Zrotation Xrotation Yrotation 
					JOINT UpperArm_L
					{
						OFFSET 5.34809 0.0 0.0
						CHANNELS 6 Xposition Yposition Zposition Zrotation Xrotation Yrotation 
						JOINT LowerArm_L
						{
							OFFSET 24.3286 1.87007e-05 0.0
							CHANNELS 6 Xposition Yposition Zposition Zrotation Xrotation Yrotation 
							JOINT Hand_L
							{
								OFFSET 22.2916 0.0 0.0
								CHANNELS 6 Xposition Yposition Zposition Zrotation Xrotation Yrotation 
								End Site
								{
									OFFSET 0.0 0.0 0.0
								}
							}
						}
					}
				}
				JOINT Shoulder_R
				{
					OFFSET 12.9945 -0.242716 -4.98039
					CHANNELS 6 Xposition Yposition Zposition Zrotation Xrotation Yrotation 
					JOINT UpperArm_R
					{
						OFFSET -5.34813 0.0 0.0
						CHANNELS 6 Xposition Yposition Zposition Zrotation Xrotation Yrotation 
						JOINT LowerArm_R
						{
							OFFSET -24.3289 0.000322201 0.0
							CHANNELS 6 Xposition Yposition Zposition Zrotation Xrotation Yrotation 
							JOINT Hand_R
							{
								OFFSET -22.2915 -0.000108084 0.0
								CHANNELS 6 Xposition Yposition Zposition Zrotation Xrotation Yrotation 
								End Site
								{
									OFFSET 0.0 0.0 0.0
								}
							}
						}
					}
				}
			}
		}
		JOINT UpperLeg_L
		{
			OFFSET -2.19248 -6.46944 0.0
			CHANNELS 6 Xposition Yposition Zposition Zrotation Xrotation Yrotation 
			JOINT LowerLeg_L
			{
				OFFSET 39.0811 0.0 -1.23785e-05
				CHANNELS 6 Xposition Yposition Zposition Zrotation Xrotation Yrotation 
				JOINT Foot_L
				{
					OFFSET 40.9854 0.0 -1.26872e-05
					CHANNELS 6 Xposition Yposition Zposition Zrotation Xrotation Yrotation 
					JOINT Toes_L
					{
						OFFSET 11.7543 0.0 0.0
						CHANNELS 6 Xposition Yposition Zposition Zrotation Xrotation Yrotation 
						End Site
						{
							OFFSET 0.0 0.0 0.0
						}
					}
				}
			}
		}
		JOINT UpperLeg_R
		{
			OFFSET -2.19251 6.46944 0.0
			CHANNELS 6 Xposition Yposition Zposition Zrotation Xrotation Yrotation 
			JOINT LowerLeg_R
			{
				OFFSET -39.0811 -0.00228153 -0.0401928
				CHANNELS 6 Xposition Yposition Zposition Zrotation Xrotation Yrotation 
				JOINT Foot_R
				{
					OFFSET -40.9854 0.0 0.0
					CHANNELS 6 Xposition Yposition Zposition Zrotation Xrotation Yrotation 
					JOINT Toes_R
					{
						OFFSET -11.7543 0.0 0.0
						CHANNELS 6 Xposition Yposition Zposition Zrotation Xrotation Yrotation 
						End Site
						{
							OFFSET 0.0 0.0 0.0
						}
					}
				}
			}
		}
	}
}
MOTION
Frames:	5
Frame Time:	0.0333333
0.000000 0.000000 0.000000 0.000000 0.000000 -0.000000 -215.814000 88.993900 242.540000 -55.458900 84.645600 140.246000 15.735700 0.000005 -0.000001 26.975000 84.582400 -24.028300 8.984550 -0.406207 -0.000000 -2.604710 -9.919500 5.678940 16.377300 -0.000001 -0.000001 4.154010 4.010960 -1.268170 6.456720 -0.000001 -0.000000 2.564720 9.055090 -3.064280 12.994200 -0.242716 4.980390 -92.192400 7.131290 -72.861500 5.348090 -0.000007 -0.000001 -72.205300 2.754540 -13.824500 24.328600 0.000019 0.000005 36.264200 26.140700 -59.011900 22.291600 -0.000001 0.000005 59.550300 4.306520 19.691800 12.994500 -0.242716 -4.980390 89.416300 1.466990 -68.303300 -5.348130 -0.000001 -0.000004 -65.430500 -3.955690 11.369800 -24.328900 0.000322 -0.000009 0.809517 15.463000 -3.037730 -22.291500 -0.000108 -0.000004 39.898600 5.398360 -2.881150 -2.192480 -6.469440 -0.000000 -172.721000 -6.531160 11.391100 39.081100 -0.000007 -0.000012 0.003816 -0.012272 17.273200 40.985400 -0.000006 -0.000013 -0.630918 29.211400 -64.033600 11.754300 -0.000000 0.000003 -0.042310 -0.269201 -27.642000 -2.192510 6.469440 -0.000001 -173.783000 -3.871600 146.548000 -39.081100 -0.002282 -0.040193 0.038171 -0.087858 21.637900 -40.985400 0.000008 0.000006 4.945380 -9.049970 -54.856300 -11.754300 -0.000006 -0.000006 -0.003267 0.211250 -8.001000
0.000000 0.000000 0.000000 0.000000 0.000000 -0.000000 -211.012000 88.781600 242.984000 -52.195800 83.264500 136.278000 15.735700 0.000005 -0.000001 22.117000 84.865000 -18.552500 8.984550 -0.406207 -0.000000 -3.607430 -9.862090 6.834100 16.377300 -0.000001 -0.000001 3.983340 3.768480 -1.351370 6.456720 -0.000001 -0.000000 2.983060 8.622680 -3.723610 12.994200 -0.242716 4.980390 -92.389600 7.776580 -72.860000 5.348090 -0.000007 -0.000001 -73.851900 4.736310 -11.629800 24.328600 0.000019 0.000005 31.553900 30.326200 -50.567900 22.291600 -0.000001 0.000005 60.688500 4.324120 19.416500 12.994500 -0.242716 -4.980390 89.103100 2.242490 -68.193900 -5.348130 -0.000001 -0.000004 -65.733000 -2.296330 10.303200 -24.328900 0.000322 -0.000009 0.790329 15.232000 -3.009270 -22.291500 -0.000108 -0.000004 40.526300 5.407680 -3.188960 -2.192480 -6.469440 -0.000000 -171.359000 -4.751710 10.110100 39.081100 -0.000007 -0.000012 0.017157 -0.043431 21.556400 40.985400 -0.000006 -0.000013 -1.688800 28.134800 -58.256900 11.754300 -0.000000 0.000003 -0.101528 -0.448344 -35.296900 -2.192510 6.469440 -0.000001 -172.767000 -5.495370 145.126000 -39.081100 -0.002282 -0.040193 0.143569 -0.261112 28.243800 -40.985400 0.000008 0.000006 4.381240 -11.188400 -57.125300 -11.754300 -0.000006 -0.000006 -0.005906 0.237645 -6.925640
0.000000 0.000000 0.000000 0.000000 0.000000 -0.000000 -206.224000 88.702500 243.247000 -52.458200 82.329400 137.296000 15.735700 0.000005 -0.000001 23.792300 84.893400 -19.929700 8.984550 -0.406207 -0.000000 -3.327950 -9.713940 7.458980 16.377300 -0.000001 -0.000001 3.470410 3.485510 -1.279150 6.456720 -0.000001 -0.000000 3.031810 8.123340 -4.119700 12.994200 -0.242716 4.980390 -92.305700 7.592610 -73.052300 5.348090 -0.000007 -0.000001 -76.594300 5.717290 -9.378060 24.328600 0.000019 0.000005 22.338400 31.017500 -38.556400 22.291600 -0.000001 0.000005 58.925700 4.423650 17.837900 12.994500 -0.242716 -4.980390 88.975400 2.577250 -68.311600 -5.348130 -0.000001 -0.000004 -67.199400 -0.724738 7.712930 -24.328900 0.000322 -0.000009 0.595926 13.957900 -2.473460 -22.291500 -0.000108 -0.000004 40.577000 5.400650 -2.958560 -2.192480 -6.469440 -0.000000 -170.891000 -2.562110 7.757350 39.081100 -0.000007 -0.000012 0.035471 -0.063637 29.134700 40.985400 -0.000006 -0.000013 -3.976320 26.086700 -49.402200 11.754300 -0.000000 0.000003 -0.136860 -0.528116 -38.834700 -2.192510 6.469440 -0.000001 -171.663000 -5.912760 146.519000 -39.081100 -0.002282 -0.040193 0.255347 -0.382695 33.370200 -40.985400 0.000008 0.000006 3.692730 -12.382000 -62.213300 -11.754300 -0.000006 -0.000006 -0.008108 0.256578 -6.152900
0.000000 0.000000 0.000000 0.000000 0.000000 -0.000000 -201.586000 88.615400 243.515000 -55.382500 81.049900 142.170000 15.735700 0.000005 -0.000001 30.136000 84.707600 -26.121600 8.984550 -0.406207 -0.000000 -2.116030 -9.497240 7.866650 16.377300 -0.000001 -0.000001 3.061740 2.871190 -1.172610 6.456720 -0.000001 -0.000000 2.784570 7.262860 -4.184350 12.994200 -0.242716 4.980390 -92.261600 7.494500 -73.154500 5.348090 -0.000007 -0.000001 -78.511700 7.482270 -7.980270 24.328600 0.000019 0.000005 13.338000 30.231400 -25.203900 22.291600 -0.000001 0.000005 58.254000 4.449490 17.427300 12.994500 -0.242716 -4.980390 89.001900 2.539560 -68.535500 -5.348130 -0.000001 -0.000004 -69.201500 0.420816 4.945090 -24.328900 0.000322 -0.000009 0.760239 12.757400 -3.445400 -22.291500 -0.000108 -0.000004 40.449400 5.410110 -3.268590 -2.192480 -6.469440 -0.000000 -170.112000 -0.314965 4.007970 39.081100 -0.000007 -0.000012 0.062039 -0.075231 39.509900 40.985400 -0.000006 -0.000013 -8.073890 24.232400 -38.627200 11.754300 -0.000000 0.000003 -0.058077 -0.325487 -30.011900 -2.192510 6.469440 -0.000001 -170.091000 -4.104050 150.038000 -39.081100 -0.002282 -0.040193 0.363643 -0.482436 36.758600 -40.985400 0.000008 0.000006 3.501120 -12.226300 -66.882200 -11.754300 -0.000006 -0.000006 -0.008462 0.259432 -6.036340
0.000000 0.000000 0.000000 0.000000 0.000000 -0.000000 -197.431000 88.476200 243.724000 -57.485000 79.873100 146.441000 15.735700 0.000005 -0.000001 38.799400 84.696200 -34.767400 8.984550 -0.406207 -0.000000 -0.803224 -8.566590 8.012360 16.377300 -0.000001 -0.000001 2.732340 1.972560 -0.592794 6.456720 -0.000001 -0.000000 2.788090 5.867050 -4.185340 12.994200 -0.242716 4.980390 -92.248500 7.498800 -73.255800 5.348090 -0.000007 -0.000001 -79.701700 8.184830 -6.362890 24.328600 0.000019 0.000005 7.131120 29.137800 -14.404400 22.291600 -0.000001 0.000005 57.230900 4.480330 16.920900 12.994500 -0.242716 -4.980390 88.991900 2.583350 -68.673900 -5.348130 -0.000001 -0.000004 -70.763900 3.577410 2.365190 -24.328900 0.000322 -0.000009 1.082620 10.718700 -5.811990 -22.291500 -0.000108 -0.000004 40.489400 5.425450 -3.783870 -2.192480 -6.469440 -0.000000 -169.247000 1.532600 -1.592100 39.081100 -0.000007 -0.000012 0.147609 -0.123943 49.979900 40.985400 -0.000006 -0.000013 -15.224700 18.803900 -24.651300 11.754300 -0.000000 0.000003 0.001986 0.046171 -14.703900 -2.192510 6.469440 -0.000001 -168.695000 -1.239690 154.125000 -39.081100 -0.002282 -0.040193 0.442656 -0.546871 38.780500 -40.985400 0.000008 0.000006 3.733100 -11.177200 -70.738100 -11.754300 -0.000006 -0.000006 -0.008897 0.262867 -5.895990
